<?xml version="1.0" standalone="no"?>
<!DOCTYPE svg PUBLIC "-//W3C//DTD SVG 20010904//EN"
 "http://www.w3.org/TR/2001/REC-SVG-20010904/DTD/svg10.dtd">
<svg version="1.0" xmlns="http://www.w3.org/2000/svg"
 width="500.000000pt" height="500.000000pt" viewBox="0 0 500.000000 500.000000"
 preserveAspectRatio="xMidYMid meet">
<metadata>
Created by potrace 1.14, written by Peter Selinger 2001-2017
</metadata>
<g transform="translate(0.000000,500.000000) scale(0.100000,-0.100000)"
fill="#000000" stroke="none">
<path d="M2107 4104 c-1 -1 -58 -4 -127 -8 -144 -8 -179 -11 -310 -32 -52 -9
-108 -18 -125 -20 -91 -15 -294 -73 -420 -122 -329 -126 -540 -286 -663 -502
-42 -75 -91 -224 -96 -296 -3 -32 -9 -74 -15 -93 -15 -47 -16 -148 -2 -198 22
-79 139 -233 236 -309 92 -72 243 -132 288 -115 33 13 39 25 24 43 -12 16
-162 118 -172 118 -12 0 -113 80 -138 109 -14 17 -38 57 -53 88 -49 104 -34
223 48 383 96 185 265 336 517 461 157 77 374 157 501 184 8 2 53 12 100 23
47 11 105 23 130 27 25 3 52 8 60 10 8 2 37 6 64 10 27 3 52 8 56 10 41 26
698 26 895 0 17 -2 66 -7 110 -10 44 -3 103 -8 130 -11 28 -3 77 -6 110 -8 71
-5 217 -16 260 -21 58 -7 341 -19 468 -19 70 -1 127 -2 127 -4 0 -2 -14 -23
-30 -47 -90 -131 -128 -260 -137 -471 -7 -182 11 -257 78 -307 27 -20 73 -16
82 8 3 7 -6 37 -21 66 -95 198 43 452 398 734 69 54 137 112 152 128 76 80
-22 186 -153 166 -84 -13 -159 -56 -243 -137 -45 -44 -56 -50 -86 -47 -19 2
-73 6 -120 9 -47 4 -101 9 -120 12 -19 2 -60 7 -90 9 -30 3 -66 7 -80 9 -38 6
-89 13 -217 31 -15 2 -71 10 -123 19 -52 8 -115 17 -140 21 -25 3 -70 10 -100
15 -30 5 -77 12 -105 15 -27 4 -61 8 -75 10 -14 2 -49 7 -79 10 -30 4 -62 8
-71 10 -9 2 -53 7 -96 11 -43 3 -92 8 -109 10 -110 10 -510 24 -518 18z"/>
<path d="M2778 3579 c-114 -32 -228 -110 -363 -251 -149 -154 -226 -259 -270
-366 -19 -46 -21 -61 -12 -94 17 -67 -15 -159 -132 -373 -15 -27 -53 -99 -86
-160 -90 -170 -103 -187 -123 -176 -9 5 -32 26 -51 46 -74 82 -152 81 -314 -3
-112 -58 -145 -128 -95 -202 44 -64 69 -75 177 -76 54 -1 118 2 144 6 l45 7
-95 -190 c-310 -619 -454 -1007 -426 -1147 7 -38 67 -61 196 -75 49 -5 66 -2
111 18 80 37 137 99 264 287 39 58 85 121 102 140 37 42 53 76 45 100 -13 40
-72 -2 -170 -121 -83 -100 -112 -127 -171 -157 -42 -21 -78 -22 -98 -2 -23 23
-15 115 20 220 47 139 77 207 214 480 152 304 241 463 260 465 8 2 47 6 85 9
39 4 81 9 95 11 73 10 165 22 240 30 30 3 82 10 115 15 33 5 83 12 110 15 190
22 566 95 695 135 139 43 185 77 147 108 -32 27 -186 30 -372 8 -22 -2 -67 -7
-100 -11 -33 -3 -71 -8 -85 -10 -14 -2 -50 -6 -80 -9 -30 -3 -77 -8 -105 -11
-27 -3 -111 -15 -185 -26 -259 -38 -258 -38 -402 -53 -27 -3 -48 -2 -48 2 0 4
28 53 63 109 258 423 426 653 616 844 193 194 349 267 477 224 20 -6 21 -4 15
32 -14 73 -51 113 -150 162 -115 58 -198 69 -303 40z"/>
</g>
</svg>
